<?xml version="1.0" encoding="UTF-8" standalone="no"?>
<!-- Created with Inkscape (http://www.inkscape.org/) -->

<svg
   width="700"
   height="700"
   viewBox="0 0 185.20831 185.20831"
   version="1.1"
   id="svg1"
   xml:space="preserve"
   xmlns="http://www.w3.org/2000/svg"
   xmlns:svg="http://www.w3.org/2000/svg">
  <defs id="defs1"/>
  
  <!-- Animation CSS injected -->
  <style type="text/css"><![CDATA[
    /* Faire tourner en continu roue-1 et roue-2 */
    #roue-1, #roue-2 {
      transform-box: fill-box;
      transform-origin: center;
      animation: spin 0.5s linear ;
    }
    @keyframes spin {
      to { transform: rotate(360deg); }
    }
  ]]></style>

  <!-- Roue arrière -->
  <path
     id="roue-2"
     style="fill:#000000"
     d="m127.57846,63.554429 c-0.0763,-0.254661 -0.27663,-1.275514 -0.44528,-2.268561 -0.24425,-1.438172 -0.42155,-1.850396 -0.87138,-2.025998 -3.33836,-1.303204 -4.91599,-1.857003 -5.29011,-1.857003 -0.24585,0 -1.24775,0.588434 -2.22644,1.30763l -1.77944,1.307631 -2.43306,-2.412609 -2.43306,-2.412608 1.30858,-1.644517c1.23229,-1.548639 1.65691,-2.778185 1.08212,-3.133424 -0.12455,-0.07698 -0.60976,-1.155549 -1.07825,-2.396824 -0.66198,-1.753947 -0.98002,-2.281682 -1.42719,-2.368235 -0.31646,-0.06126 -1.40882,-0.269632 -2.42747,-0.463062l -1.85208,-0.35169 -0.0743,-3.244587c-0.086,-3.755777 -0.22917,-3.564747 2.92412,-3.902435 1.94423,-0.20821 2.089,-0.312106 2.57603,-1.84881 0.18449,-0.582084 0.67625,-1.739548 1.09282,-2.572143 0.41656,-0.832595 0.75739,-1.560884 0.75739,-1.618419 0,-0.05754 -0.65283,-0.923802 -1.45074,-1.925036l -1.45073,-1.820424 2.30511,-2.315843c1.26782,-1.273714 2.4121,-2.315843 2.54285,-2.315843 0.13076,0 1.06826,0.615686 2.08333,1.368192l 1.84559,1.368192 2.68469,-0.883494c1.47658,-0.485922 2.82361,-1.051286 2.99341,-1.256365 0.16979,-0.205079 0.39294,-0.98874 0.49589,-1.741469 0.3696,-2.702367 0.18868,-2.585987 3.8883,-2.501248l 3.24459,0.07432 0.306,1.322917c0.1683,0.727604 0.38205,1.769401 0.47501,2.315104 0.10691,0.627648 0.31404,0.992187 0.56375,0.992187 0.21711,0 1.49532,0.374372 2.84047,0.831938l 2.44572,0.831938 1.86549,-1.361105c1.02602,-0.748607 1.97746,-1.361104 2.11432,-1.361104 0.30714,0 4.60278,4.291385 4.60278,4.598219 0,0.121847 -0.59531,0.96968 -1.32292,1.884072 -0.7276,0.914393 -1.32291,1.783043 -1.32291,1.930335 0,0.221518 1.63559,3.915612 2.36686,5.345706 0.12912,0.252509 0.95296,0.512397 2.26482,0.714452 1.13404,0.174668 2.19294,0.367623 2.35312,0.42879 0.19663,0.07509 0.26494,1.189729 0.21028,3.431328l -0.081,3.320115 -1.90342,0.299255c-2.6758,0.420688 -2.94141,0.571693 -3.33796,1.897705 -0.18967,0.63423 -0.6291,1.714735 -0.97651,2.401122 -0.34741,0.686386 -0.63166,1.496738 -0.63166,1.800783 0,0.304044 0.59508,1.288261 1.32241,2.187148l 1.3224,1.634341 -2.42688,2.437016 -2.42688,2.437015 -0.81375,-0.562634c -0.44757,-0.309448 -1.24761,-0.898083 -1.77787,-1.308077 -1.1585,-0.895736 -1.74674,-0.927187 -3.21362,-0.171818 -0.61266,0.315494 -1.76878,0.777958 -2.56914,1.027699l -1.45521,0.454073 -0.28368,1.551989c -0.15602,0.853594 -0.36665,1.879411 -0.46806,2.279593l -0.18438,0.727604h -3.15213c -2.77283,0 -3.16882,-0.05572 -3.29077,-0.463021z"/>
  
  <!-- Roue avant -->
  <path
     id="roue-1"
     style="fill:#000000"
     d="m147.00207,100.4638 c-0.13596,-0.32742 -0.37998,-1.279919 -0.54226,-2.116664 -0.16228,-0.836745 -0.40647,-1.521354 -0.54265,-1.521354 -0.13617,0 -1.32894,-0.427608 -2.65059,-0.950239l -2.40299,-0.950238 -1.56434,1.214821c -0.86039,0.668152 -1.65628,1.214822 -1.76864,1.214822 -0.11236,0 -1.14485,-0.94611 -2.29442,-2.102468l -2.09014,-2.102467 0.73913,-1.06657c 0.40653,-0.586614 0.9034,-1.202894 1.10416,-1.369512 0.20076,-0.166619 0.36502,-0.572653 0.36502,-0.902298 0,-0.496068 -0.99018,-2.999207 -1.83054,-4.627517 -0.12338,-0.239072 -1.03631,-0.557389 -2.29599,-0.800568 l -2.09117,-0.403692 -0.0745,-3.094904c -0.0731,-3.037113 -0.0632,-3.09719 0.52916,-3.217317 2.70362,-0.548265 3.75798,-0.873902 3.93324,-1.214769 0.84327,-1.640077 1.82804,-4.126091 1.81969,-4.593768 -0.006,-0.311084 -0.53668,-1.216214 -1.18029,-2.011401 -1.35564,-1.674917 -1.46447,-1.385575 1.51606,-4.030715l 1.78089,-1.580485 1.62732,1.23759c1.80717,1.374367 1.59449,1.365567 4.86507,0.201301l 2.11667,-0.753494 0.42347,-1.736415c 0.23291,-0.955027 0.50783,-1.872902 0.61093,-2.039721 0.2683,-0.434125 5.34887,-0.412994 5.61856,0.02337 0.11104,0.179672 0.328,1.095499 0.48213,2.035172l 0.28024,1.708495 2.56665,0.885217 2.56666,0.885216 1.64997,-1.200597c 0.90749,-0.660328 1.71824,-1.200597 1.80168,-1.200597 0.0834,0 1.07723,0.930985 2.20843,2.068855l 2.05672,2.068854 -1.20304,1.549267c -0.66166,0.852097 -1.20303,1.692054 -1.20303,1.866571 0,0.174516 0.28725,0.838315 0.63832,1.475107 0.35108,0.636792 0.79006,1.675232 0.97552,2.307644 0.37551,1.280459 0.67221,1.461247 2.88408,1.757326 0.80036,0.107137 1.60404,0.315103 1.78594,0.462148 0.36421,0.294423 0.47488,5.399789 0.12824,5.915987 -0.10692,0.159207 -1.07602,0.456863 -2.15357,0.661458 -1.16752,0.221677 -2.04182,0.532359 -2.1637,0.768866 -0.84352,1.636843 -1.83024,4.131651 -1.83024,4.627517 0,0.329645 0.16426,0.735679 0.36502,0.902298 0.20076,0.166618 0.69763,0.782898 1.10416,1.369512l 0.73913,1.06657 -2.09014,2.102467c -1.14957,1.156358 -2.19138,2.102468 -2.31511,2.102468 -0.12374,0 -0.89006,-0.47625 -1.70293,-1.058333 -0.81287,-0.582083 -1.66692,-1.058675 -1.89789,-1.059094 -0.23098,-4.18e-4 -1.19386,0.309923 -2.13974,0.689648 -0.94589,0.379724 -1.97393,0.787964 -2.28453,0.907199 -0.44904,0.172374 -0.62901,0.585863 -0.87844,2.018175 -0.17253,0.990761 -0.45418,1.890726 -0.62589,1.999926 -0.1717,0.1092 -1.41607,0.20037 -2.76525,0.20259 -2.29616,0.004 -2.46888,-0.034 -2.70026,-0.59126z"/>
  
  <!-- Suite du SVG inchangée… -->
  <path
     style="fill:#000000"
     d="m 127.57846,63.554429 c -0.0763,-0.254661 -0.27663,-1.275514 -0.44528,-2.268561 -0.24425,-1.438172 -0.42155,-1.850396 -0.87138,-2.025998 -3.33836,-1.303204 -4.91599,-1.857003 -5.29011,-1.857003 -0.24585,0 -1.24775,0.588434 -2.22644,1.30763 l -1.77944,1.307631 -2.43306,-2.412609 -2.43306,-2.412608 1.30858,-1.644517 c 1.23229,-1.548639 1.65691,-2.778185 1.08212,-3.133424 -0.12455,-0.07698 -0.60976,-1.155549 -1.07825,-2.396824 -0.66198,-1.753947 -0.98002,-2.281682 -1.42719,-2.368235 -0.31646,-0.06126 -1.40882,-0.269632 -2.42747,-0.463062 l -1.85208,-0.35169 -0.0743,-3.244587 c -0.086,-3.755777 -0.22917,-3.564747 2.92412,-3.902435 1.94423,-0.20821 2.089,-0.312106 2.57603,-1.84881 0.18449,-0.582084 0.67625,-1.739548 1.09282,-2.572143 0.41656,-0.832595 0.75739,-1.560884 0.75739,-1.618419 0,-0.05754 -0.65283,-0.923802 -1.45074,-1.925036 l -1.45073,-1.820424 2.30511,-2.315843 c 1.26782,-1.273714 2.4121,-2.315843 2.54285,-2.315843 0.13076,0 1.06826,0.615686 2.08333,1.368192 l 1.84559,1.368192 2.68469,-0.883494 c 1.47658,-0.485922 2.82361,-1.051286 2.99341,-1.256365 0.16979,-0.205079 0.39294,-0.98874 0.49589,-1.741469 0.3696,-2.702367 0.18868,-2.585987 3.8883,-2.501248 l 3.24459,0.07432 0.306,1.322917 c 0.1683,0.727604 0.38205,1.769401 0.47501,2.315104 0.10691,0.627648 0.31404,0.992187 0.56375,0.992187 0.21711,0 1.49532,0.374372 2.84047,0.831938 l 2.44572,0.831938 1.86549,-1.361105 c 1.02602,-0.748607 1.97746,-1.361104 2.11432,-1.361104 0.30714,0 4.60278,4.291385 4.60278,4.598219 0,0.121847 -0.59531,0.96968 -1.32292,1.884072 -0.7276,0.914393 -1.32291,1.783043 -1.32291,1.930335 0,0.221518 1.63559,3.915612 2.36686,5.345706 0.12912,0.252509 0.95296,0.512397 2.26482,0.714452 1.13404,0.174668 2.19294,0.367623 2.35312,0.42879 0.19663,0.07509 0.26494,1.189729 0.21028,3.431328 l -0.081,3.320115 -1.90342,0.299255 c -2.6758,0.420688 -2.94141,0.571693 -3.33796,1.897705 -0.18967,0.63423 -0.6291,1.714735 -0.97651,2.401122 -0.34741,0.686386 -0.63166,1.496738 -0.63166,1.800783 0,0.304044 0.59508,1.288261 1.32241,2.187148 l 1.3224,1.634341 -2.42688,2.437016 -2.42688,2.437015 -0.81375,-0.562634 c -0.44757,-0.309448 -1.24761,-0.898083 -1.77787,-1.308077 -1.1585,-0.895736 -1.74674,-0.927187 -3.21362,-0.171818 -0.61266,0.315494 -1.76878,0.777958 -2.56914,1.027699 l -1.45521,0.454073 -0.28368,1.551989 c -0.15602,0.853594 -0.36665,1.879411 -0.46806,2.279593 l -0.18438,0.727604 h -3.15213 c -2.77283,0 -3.16882,-0.05572 -3.29077,-0.463021 z"
     id="roue-2" /><path
     style="fill:#ffffff"
     d="m 135.17555,50.301759 c 2.85232,-1.404194 4.59152,-3.798344 5.20104,-7.159667 0.71745,-3.956507 -1.36858,-7.964075 -5.14484,-9.883967 -1.24422,-0.632575 -2.0447,-0.838955 -3.62217,-0.933868 -2.61813,-0.157527 -4.36885,0.276873 -6.29227,1.561288 -6.47664,4.32493 -5.21131,14.211411 2.16482,16.914583 1.05951,0.388285 1.93254,0.491319 3.67245,0.433422 1.94859,-0.06484 2.53685,-0.201162 4.02097,-0.931791 z"
     id="roue-2_bis" /><path
     style="fill:#000000"
     d="m 147.00207,100.4638 c -0.13596,-0.32742 -0.37998,-1.279919 -0.54226,-2.116664 -0.16228,-0.836745 -0.40647,-1.521354 -0.54265,-1.521354 -0.13617,0 -1.32894,-0.427608 -2.65059,-0.950239 l -2.40299,-0.950238 -1.56434,1.214821 c -0.86039,0.668152 -1.65628,1.214822 -1.76864,1.214822 -0.11236,0 -1.14485,-0.94611 -2.29442,-2.102468 l -2.09014,-2.102467 0.73913,-1.06657 c 0.40653,-0.586614 0.9034,-1.202894 1.10416,-1.369512 0.20076,-0.166619 0.36502,-0.572653 0.36502,-0.902298 0,-0.496068 -0.99018,-2.999207 -1.83054,-4.627517 -0.12338,-0.239072 -1.03631,-0.557389 -2.29599,-0.800568 l -2.09117,-0.403692 -0.0745,-3.094904 c -0.0731,-3.037113 -0.0632,-3.09719 0.52916,-3.217317 2.70362,-0.548265 3.75798,-0.873902 3.93324,-1.214769 0.84327,-1.640077 1.82804,-4.126091 1.81969,-4.593768 -0.006,-0.311084 -0.53668,-1.216214 -1.18029,-2.011401 -1.35564,-1.674917 -1.46447,-1.385575 1.51606,-4.030715 l 1.78089,-1.580485 1.62732,1.23759 c 1.80717,1.374367 1.59449,1.365567 4.86507,0.201301 l 2.11667,-0.753494 0.42347,-1.736415 c 0.23291,-0.955027 0.50783,-1.872902 0.61093,-2.039721 0.2683,-0.434125 5.34887,-0.412994 5.61856,0.02337 0.11104,0.179672 0.328,1.095499 0.48213,2.035172 l 0.28024,1.708495 2.56665,0.885217 2.56666,0.885216 1.64997,-1.200597 c 0.90749,-0.660328 1.71824,-1.200597 1.80168,-1.200597 0.0834,0 1.07723,0.930985 2.20843,2.068855 l 2.05672,2.068854 -1.20304,1.549267 c -0.66166,0.852097 -1.20303,1.692054 -1.20303,1.866571 0,0.174516 0.28725,0.838315 0.63832,1.475107 0.35108,0.636792 0.79006,1.675232 0.97552,2.307644 0.37551,1.280459 0.67221,1.461247 2.88408,1.757326 0.80036,0.107137 1.60404,0.315103 1.78594,0.462148 0.36421,0.294423 0.47488,5.399789 0.12824,5.915987 -0.10692,0.159207 -1.07602,0.456863 -2.15357,0.661458 -1.16752,0.221677 -2.04182,0.532359 -2.1637,0.768866 -0.84352,1.636843 -1.83024,4.131651 -1.83024,4.627517 0,0.329645 0.16426,0.735679 0.36502,0.902298 0.20076,0.166618 0.69763,0.782898 1.10416,1.369512 l 0.73913,1.06657 -2.09014,2.102467 c -1.14957,1.156358 -2.19138,2.102468 -2.31511,2.102468 -0.12374,0 -0.89006,-0.47625 -1.70293,-1.058333 -0.81287,-0.582083 -1.66692,-1.058675 -1.89789,-1.059094 -0.23098,-4.18e-4 -1.19386,0.309923 -2.13974,0.689648 -0.94589,0.379724 -1.97393,0.787964 -2.28453,0.907199 -0.44904,0.172374 -0.62901,0.585863 -0.87844,2.018175 -0.17253,0.990761 -0.45418,1.890726 -0.62589,1.999926 -0.1717,0.1092 -1.41607,0.20037 -2.76525,0.20259 -2.29616,0.004 -2.46888,-0.034 -2.70026,-0.59126 z"
     id="roue-1" /><path
     style="fill:#e6e6e6"
     d="m 152.28025,89.527437 c 3.81853,-1.133982 6.06511,-4.005577 6.29591,-8.047488 0.0916,-1.603798 -5.8e-4,-2.286269 -0.4805,-3.558492 -0.74494,-1.974747 -2.48525,-3.873782 -4.41542,-4.818123 -2.05285,-1.00437 -4.9146,-1.154077 -7.00215,-0.366304 -1.97748,0.746237 -3.95801,2.549406 -4.89426,4.455978 -0.64537,1.3142 -0.74076,1.815964 -0.7396,3.890066 0.001,1.869714 0.12253,2.643975 0.5655,3.604261 1.84597,4.001737 6.45447,6.092134 10.67052,4.840102 z"
     id="roue-1_bis" /><path
     style="fill:#000000"
     d="m 35.341544,79.561724 3.15e-4,-3.108854 h 4.7625 4.7625 v 3.031166 3.031166 l -4.762815,0.07769 -4.762815,0.07769 z"
     id="bob-13" /><path
     style="fill:#000000"
     d="m 19.11134,89.382382 c -0.606533,-0.35257 -1.23198,-1.804267 -1.23198,-2.859497 0,-0.702441 -0.155092,-0.861612 -1.333476,-1.368539 -0.733411,-0.315505 -1.447786,-0.787237 -1.5875,-1.048294 -0.139713,-0.261056 -0.254024,-2.182389 -0.254024,-4.269629 0,-4.344776 0.117998,-4.669219 1.95305,-5.370031 1.118759,-0.427258 1.166576,-0.491815 1.339177,-1.80799 0.238096,-1.815608 0.742171,-2.555536 1.740956,-2.555536 h 0.78765 v 9.789583 c 0,9.150089 -0.03025,9.789057 -0.46302,9.781537 -0.254662,-0.0044 -0.682536,-0.135647 -0.950833,-0.291604 z"
     id="bob-12" /><path
     style="fill:#000000"
     d="m 46.365351,56.843957 c -1.385956,-0.731207 -2.167437,-2.437322 -1.778319,-3.882395 0.328315,-1.219271 1.453126,-2.356009 2.679247,-2.707656 0.565207,-0.162099 11.373504,-0.259218 28.819661,-0.258961 26.04859,3.84e-4 27.97686,0.03135 28.83606,0.463021 1.95723,0.983349 2.70082,3.432252 1.5886,5.231858 -1.12349,1.81784 0.74639,1.714307 -30.72748,1.70135 -27.992808,-0.01152 -28.417369,-0.01942 -29.417769,-0.547217 z"
     id="bob-11" /><path
     style="fill:#000000"
     d="m 49.574202,62.173202 c -0.892856,-0.702307 -1.151938,-2.047238 -0.599984,-3.114592 0.230125,-0.445017 0.536931,-0.882369 0.681791,-0.971897 0.345379,-0.213457 51.834921,-0.18413 52.180941,0.02972 0.50196,0.31023 1.01638,1.946991 0.84274,2.681408 -0.0943,0.398957 -0.41475,0.993264 -0.71206,1.320681 l -0.54056,0.59531 H 75.844287 c -25.36299,0 -25.588689,-0.005 -26.270085,-0.54063 z"
     id="bob-10" /><path
     style="fill:#000000"
     d="m 49.799077,68.104046 c -0.892856,-0.702307 -1.151938,-2.047238 -0.599984,-3.114592 0.230125,-0.445017 0.536931,-0.882369 0.681791,-0.971897 0.345379,-0.213457 51.834926,-0.18413 52.180946,0.02972 0.50196,0.31023 1.01638,1.946991 0.84274,2.681408 -0.0943,0.398957 -0.41475,0.993264 -0.71206,1.320681 l -0.54056,0.59531 H 76.069159 c -25.362987,0 -25.588686,-0.005 -26.270082,-0.54063 z"
     id="bob-9" /><path
     style="fill:#000000"
     d="m 49.920342,74.034889 c -0.892856,-0.702307 -1.151938,-2.047238 -0.599984,-3.114592 0.230125,-0.445017 0.536931,-0.882369 0.681791,-0.971897 0.345379,-0.213457 51.834921,-0.18413 52.180941,0.02972 0.50196,0.31023 1.01638,1.946991 0.84274,2.681408 -0.0943,0.398957 -0.41475,0.993264 -0.71206,1.320681 l -0.54056,0.59531 H 76.190425 c -25.362988,0 -25.588687,-0.005 -26.270083,-0.54063 z"
     id="bob-8" /><path
     style="fill:#000000"
     d="m 49.920342,79.965733 c -0.892856,-0.702307 -1.151938,-2.047238 -0.599984,-3.114592 0.230125,-0.445017 0.536931,-0.882369 0.681791,-0.971897 0.345379,-0.213457 51.834921,-0.18413 52.180941,0.02972 0.50196,0.31023 1.01638,1.946991 0.84274,2.681408 -0.0943,0.398957 -0.41475,0.993264 -0.71206,1.320681 l -0.54056,0.595309 H 76.190425 c -25.362988,0 -25.588687,-0.005 -26.270083,-0.540629 z"
     id="bob-7" /><path
     style="fill:#000000"
     d="m 49.920342,85.896576 c -0.892856,-0.702307 -1.151938,-2.047238 -0.599984,-3.114592 0.230125,-0.445017 0.536931,-0.882369 0.681791,-0.971897 0.345379,-0.213457 51.834921,-0.18413 52.180941,0.02972 0.50196,0.31023 1.01638,1.946991 0.84274,2.681408 -0.0943,0.398957 -0.41475,0.993264 -0.71206,1.320681 l -0.54056,0.595307 H 76.190425 c -25.362988,0 -25.588687,-0.005 -26.270083,-0.540627 z"
     id="bob-6" /><path
     style="fill:#000000"
     d="m 49.920342,91.827417 c -0.892856,-0.702307 -1.151938,-2.047238 -0.599984,-3.114592 0.230125,-0.445017 0.536931,-0.882369 0.681791,-0.971897 0.345379,-0.213457 51.834921,-0.18413 52.180941,0.02972 0.50196,0.31023 1.01638,1.946991 0.84274,2.681408 -0.0943,0.398957 -0.41475,0.993264 -0.71206,1.320681 l -0.54056,0.595307 H 76.190425 c -25.362988,0 -25.588687,-0.005 -26.270083,-0.540627 z"
     id="bob-5" /><path
     style="fill:#000000"
     d="m 49.920342,97.758278 c -0.892856,-0.702317 -1.151938,-2.047258 -0.599984,-3.114612 0.230125,-0.445018 0.536931,-0.88237 0.681791,-0.971898 0.345379,-0.213457 51.834921,-0.18413 52.180941,0.02972 0.50196,0.31023 1.01638,1.946992 0.84274,2.681419 -0.0943,0.398957 -0.41475,0.993264 -0.71206,1.320691 l -0.54056,0.595307 H 76.190425 c -25.362988,0 -25.588687,-0.005 -26.270083,-0.540627 z"
     id="bob-4" /><path
     style="fill:#000000"
     d="m 49.920341,103.68916 c -0.892856,-0.70232 -1.151938,-2.04727 -0.599984,-3.11463 0.230125,-0.44502 0.536931,-0.882372 0.681791,-0.9719 0.345379,-0.213457 51.834922,-0.18413 52.180942,0.02972 0.50196,0.31023 1.01638,1.947 0.84274,2.68143 -0.0943,0.39896 -0.41475,0.99327 -0.71206,1.3207 l -0.54056,0.59531 H 76.190424 c -25.362988,0 -25.588687,-0.005 -26.270083,-0.54063 z"
     id="bob-3" /><path
     style="fill:#000000"
     d="m 46.286802,111.66413 c -1.160813,-0.70783 -1.684527,-1.55954 -1.684527,-2.73953 0,-1.40101 0.556657,-2.34312 1.796023,-3.03969 l 1.054151,-0.59246 28.406681,9.9e-4 c 27.87873,9.7e-4 28.42271,0.0108 29.269,0.52675 0.99376,0.6059 1.91338,1.97667 1.91482,2.85419 0.002,1.07369 -0.73903,2.41397 -1.63674,2.96129 -0.86423,0.52691 -1.25542,0.53397 -29.5831,0.53397 -27.793803,0 -28.733673,-0.0161 -29.536308,-0.50551 z"
     id="bob-2" /><path
     style="fill:#000000"
     d="m 28.196397,123.3026 c -1.26722,-0.38758 -2.305923,-1.0554 -3.16711,-2.03624 -1.745151,-1.98762 -1.626114,1.30789 -1.606605,-44.478292 0.01701,-39.925819 0.03829,-41.72351 0.506319,-42.781571 0.735594,-1.662932 2.004501,-2.946734 3.798732,-3.843321 l 1.61323,-0.806141 4.786385,0.0058 c 4.08628,0.005 4.944231,0.0775 5.865515,0.495927 2.748379,1.248251 3.450299,4.355235 1.505954,6.665958 -1.063531,1.263934 -2.061904,1.563554 -5.209969,1.563554 -3.068314,0 -3.946532,0.259326 -4.372338,1.291092 -0.201584,0.488456 -0.265495,11.623949 -0.21632,37.690529 l 0.0698,36.997245 0.864069,0.77203 0.86407,0.77202 H 78.08475 c 37.2924,0 44.72944,0.0597 45.45973,0.36481 1.09046,0.45562 1.93412,1.50755 2.30059,2.86852 0.24494,0.90965 0.20151,1.20814 -0.32983,2.26682 -0.33655,0.67058 -0.94806,1.46354 -1.3589,1.76215 -0.74611,0.54228 -0.80188,0.54297 -48.02187,0.58743 -26.001197,0.0245 -47.573324,-0.0468 -47.938068,-0.15833 z"
     id="bob-1" /><path
     style="fill:#000000"
     d="m 119.74394,147.36121 v -18.78542 h 8.96117 c 10.23069,0 12.34946,0.23302 15.54542,1.70964 2.25032,1.03971 4.33257,2.97227 5.44876,5.05704 3.22455,6.02267 1.10265,13.84686 -4.6215,17.04112 -0.83674,0.46693 -1.52135,1.01813 -1.52135,1.22488 0,0.20676 1.78593,3.05096 3.96875,6.32044 2.18281,3.26949 3.96875,6.00874 3.96875,6.08722 0,0.0785 -2.1079,0.11019 -4.68422,0.0704 l -4.68421,-0.0722 -3.52602,-5.42396 c -1.9393,-2.98318 -3.62117,-5.58136 -3.73748,-5.77374 -0.15303,-0.25311 -1.04657,-0.36104 -3.233,-0.3905 l -3.02153,-0.0407 -0.0712,5.88061 -0.0712,5.8806 h -4.36056 -4.36056 z"
     id="lettre-r" /><path
     style="fill:#ffffff"
     d="m 140.14072,146.43516 c 1.60657,-1.13238 2.35883,-2.69037 2.35157,-4.87026 -0.01,-2.88903 -1.34479,-4.93157 -3.64042,-5.56913 -0.54119,-0.15031 -3.09733,-0.27394 -5.68033,-0.27475 l -4.69635,-0.001 v 5.84069 5.8407 l 5.2697,-0.086 5.26969,-0.086 z"
     id="lettre-r_bis" /><path
     style="fill:#000000"
     d="m 93.48625,151.26381 -0.0684,-14.88281 -5.88698,-0.0712 -5.88698,-0.0712 v -3.83139 -3.8314 h 16.27187 16.27188 v 3.83646 3.83646 h -5.95313 -5.95312 v 14.94895 14.94896 h -4.36342 -4.36342 z"
     id="lettre-t" /><path
     style="fill:#000000"
     d="m 45.780924,163.3024 c 3.224702,-8.15805 13.367006,-33.86384 13.518796,-34.26354 0.15832,-0.4169 0.64212,-0.46302 4.85688,-0.46302 h 4.68104 l 0.35182,0.99219 c 0.43414,1.22434 11.77298,29.81541 13.3786,33.73437 l 1.16531,2.84427 h -4.55141 -4.55141 l -1.34999,-3.50573 -1.34998,-3.50573 h -7.88832 -7.888313 l -1.326172,3.50573 -1.326171,3.50573 h -4.42248 -4.422479 z"
     id="lettre-a" /><path
     style="display:inline;fill:#ffffff"
     d="m 69.20448,151.52839 c -0.009,-0.77012 -4.74772,-12.77252 -5.06822,-12.8381 -0.23709,-0.0485 -1.10832,1.97764 -2.67358,6.2177 -1.27703,3.45932 -2.31883,6.4385 -2.3151,6.6204 0.005,0.25274 1.1922,0.33073 5.03386,0.33073 3.84743,0 5.02614,-0.0776 5.02304,-0.33073 z"
     id="lettre-a_bis" />

  <!-- Fin du SVG -->
</svg>




