<?xml version="1.0" ?><!-- Created with Inkscape (http://www.inkscape.org/) --><svg xmlns="http://www.w3.org/2000/svg" xmlns:svg="http://www.w3.org/2000/svg" width="270.93332mm" height="270.93332mm" viewBox="0 0 270.93332 270.93332" version="1.1" id="svg1" xml:space="preserve"><style>
    #lettre-r {
        opacity: 0;
        transform: translateY(-20px);
        animation: fadeInSlide 1s ease-out 0s forwards;
    }
    #lettre-i {
        opacity: 0;
        transform: translateY(-20px);
        animation: fadeInSlide 1s ease-out 0.5s forwards;
    }
    #lettre-v {
        opacity: 0;
        transform: translateY(-20px);
        animation: fadeInSlide 1s ease-out 1s forwards;
    }
    #lettre-a {
        opacity: 0;
        transform: translateY(-20px);
        animation: fadeInSlide 1s ease-out 1.5s forwards;
    }
    #lettre-a-bis {
        opacity: 0;
        transform: translateY(-20px);
        animation: fadeInSlide 1s ease-out 1.5s forwards;
    }

    @keyframes fadeInSlide {
        to {
            opacity: 1;
            transform: translateY(0);
        }
    }
</style><defs id="defs1"/><g id="layer1" transform="translate(934.24377,419.09998)"><path style="display:inline;fill:#006e63;fill-opacity:1" d="m -934.24377,-283.63332 v -135.46666 h 135.46666 135.46665 v 135.46666 135.46666 h -135.46665 -135.46666 z" id="path3"/><path style="fill:#e1c28e;fill-opacity:1" d="m -724.4093,-174.4927 c 1.46068,-4.51114 3.04592,-9.3927 3.52276,-10.84791 l 0.86698,-2.64584 13.00872,-0.0686 c 7.1548,-0.0377 13.00872,-0.0103 13.00872,0.061 0,0.0713 1.0599,3.43592 2.35534,7.47697 1.29543,4.04106 2.84227,8.89519 3.43742,10.78696 l 1.08208,3.43959 4.63237,0.0196 c 2.5478,0.0108 4.63237,-0.006 4.63237,-0.0369 0,-0.0311 -2.63447,-7.65992 -5.85437,-16.95296 -3.21991,-9.29304 -8.68309,-25.11174 -12.14041,-35.15268 l -6.28603,-18.25625 h -4.96931 -4.96932 l -0.38954,1.19063 c -1.54141,4.71135 -22.94388,67.49736 -23.44967,68.79166 -0.13416,0.34331 0.45299,0.39688 4.35052,0.39688 h 4.5056 z" id="lettre-a"/><path style="display:inline;opacity:1;mix-blend-mode:normal;fill:#006e63;fill-opacity:1" d="m -717.48298,-195.8578 c 0.068,-0.1819 1.08285,-3.30729 2.25518,-6.94531 5.09011,-15.79587 8.12218,-24.96565 8.22208,-24.86575 0.18855,0.18855 10.35777,31.50961 10.35777,31.9018 0,0.13956 -4.38534,0.23999 -10.47935,0.23999 -8.27305,0 -10.45331,-0.0696 -10.35568,-0.33073 z" id="lettre-a-bis"/><path style="fill:#e1c28e;fill-opacity:1" d="m -750.46894,-190.39481 c 4.52309,-13.22748 9.95095,-29.08036 12.06191,-35.22861 l 3.8381,-11.17865 h -4.46169 -4.46168 l -0.27819,0.72761 c -0.153,0.40018 -2.3606,7.15697 -4.90578,15.0151 -6.67754,20.61664 -14.45379,43.96406 -14.54044,43.65625 -0.15378,-0.54624 -7.19218,-22.44138 -11.22698,-34.925 -2.30464,-7.13052 -5.01133,-15.52443 -6.01487,-18.65313 l -1.82462,-5.68854 -4.82674,-0.0722 c -2.6547,-0.0397 -4.77291,0.0198 -4.70713,0.1323 0.0835,0.14279 22.29552,66.88447 23.31451,70.05447 0.053,0.16503 1.91467,0.25438 4.94743,0.23747 l 4.86237,-0.0271 z" id="lettre-v"/><path style="fill:#e1c28e;fill-opacity:1" d="m -805.92101,-201.5529 1.5e-4,-35.26228 -4.29948,0.0727 -4.29948,0.0727 -0.068,34.925 c -0.0374,19.20875 -0.0228,35.04406 0.0324,35.18958 0.0612,0.1613 1.7661,0.26459 4.36737,0.26459 h 4.26692 z" id="lettre-i"/><path style="display:inline;fill:#b1a171;fill-opacity:1" d="m -833.9667,-243.4031 c 0,-70.99746 0.0479,-80.78561 0.40874,-83.54218 1.26179,-9.63908 4.82858,-16.85121 11.44343,-23.13887 4.85156,-4.6116 10.76005,-7.73011 17.252,-9.10564 3.04971,-0.64618 9.05679,-0.65808 12.25338,-0.0243 10.91851,2.16489 19.66452,10.04305 23.02744,20.74249 1.38843,4.41741 1.49626,5.92256 1.49626,20.88591 v 13.844 h 43.8089 43.80889 l -0.10922,-16.99948 c -0.10081,-15.69117 -0.15199,-17.26419 -0.66502,-20.43906 -1.36105,-8.4227 -3.43061,-14.76311 -7.16808,-21.96041 -8.79567,-16.938 -24.12064,-30.1087 -42.36922,-36.41329 -18.81523,-6.50035 -39.57779,-5.82298 -59.10097,1.92815 -12.98169,5.15402 -27.25716,14.64175 -40.71309,27.05862 l -3.63802,3.3571 v -19.85956 -19.85956 h -42.46562 -42.46563 v 121.97291 121.97291 h 42.59792 42.59791 z" id="lettre-r"/></g></svg>